<svg width="30" height="31" viewBox="0 0 30 31" fill="none" xmlns="http://www.w3.org/2000/svg">
<path d="M14.9209 9.13037C11.2172 9.13037 8.14844 12.2468 8.14844 16.1286C8.14844 20.0104 11.1643 23.1268 14.9209 23.1268C18.6775 23.1268 21.6934 19.9558 21.6934 16.1286C21.6934 12.3014 18.6246 9.13037 14.9209 9.13037ZM14.9209 20.6119C12.54 20.6119 10.5823 18.5889 10.5823 16.1286C10.5823 13.6683 12.54 11.6454 14.9209 11.6454C17.3019 11.6454 19.2595 13.6683 19.2595 16.1286C19.2595 18.5889 17.3019 20.6119 14.9209 20.6119Z" fill="#659F85"/>
<path d="M21.9572 10.5519C22.8047 10.5519 23.4916 9.84207 23.4916 8.9664C23.4916 8.09073 22.8047 7.38086 21.9572 7.38086C21.1098 7.38086 20.4229 8.09073 20.4229 8.9664C20.4229 9.84207 21.1098 10.5519 21.9572 10.5519Z" fill="#659F85"/>
<path d="M25.9258 4.86613C24.5502 3.38994 22.5925 2.62451 20.3703 2.62451H9.47079C4.86761 2.62451 1.79883 5.79559 1.79883 10.5522V21.7603C1.79883 24.1113 2.53957 26.1342 4.02105 27.6104C5.44962 29.0319 7.35438 29.7427 9.5237 29.7427H20.3173C22.5925 29.7427 24.4972 28.9772 25.8729 27.6104C27.3015 26.1889 28.0422 24.166 28.0422 21.815V10.5522C28.0422 8.2559 27.3015 6.28765 25.9258 4.86613ZM25.7142 21.815C25.7142 23.5099 25.1322 24.8767 24.1798 25.8062C23.2274 26.7356 21.9046 27.2277 20.3173 27.2277H9.5237C7.93639 27.2277 6.61364 26.7356 5.66126 25.8062C4.70888 24.822 4.23269 23.4552 4.23269 21.7603V10.5522C4.23269 8.91199 4.70888 7.54515 5.66126 6.56102C6.56073 5.63157 7.93639 5.1395 9.5237 5.1395H20.4232C22.0105 5.1395 23.3332 5.63157 24.2856 6.61569C25.1851 7.59982 25.7142 8.96666 25.7142 10.5522V21.815Z" fill="#659F85"/>
</svg>
