<svg width="500" height="500" viewBox="0 0 500 500" fill="none" xmlns="http://www.w3.org/2000/svg">
<path d="M95.0216 210.753C95.0216 216.451 92.6049 220.706 87.7716 223.524C90.782 224.889 93.1882 226.847 94.9799 229.399C96.782 231.941 97.6882 235.061 97.6882 238.753C97.6882 243.337 95.5528 247.18 91.2924 250.274C87.0424 253.373 82.157 254.92 76.6466 254.92C71.0059 254.92 66.0841 253.389 61.8757 250.316C57.6674 247.248 55.5632 243.394 55.5632 238.753C55.5632 231.602 58.8393 226.524 65.3966 223.524C60.4226 220.706 57.9382 216.451 57.9382 210.753C57.9382 206.753 59.8393 203.389 63.6466 200.649C67.4487 197.915 71.7611 196.545 76.5841 196.545C81.5424 196.545 85.8549 197.899 89.5216 200.607C93.1882 203.316 95.0216 206.701 95.0216 210.753ZM82.8549 212.587C82.8549 210.769 82.2716 209.264 81.1049 208.066C79.9487 206.857 78.4643 206.253 76.6466 206.253C74.8237 206.253 73.3132 206.857 72.1049 208.066C70.907 209.264 70.3132 210.769 70.3132 212.587C70.3132 214.41 70.9226 215.915 72.1466 217.107C73.3653 218.29 74.8653 218.878 76.6466 218.878C78.4643 218.878 79.9487 218.305 81.1049 217.149C82.2716 215.982 82.8549 214.462 82.8549 212.587ZM71.5007 231.545C70.1518 232.878 69.4799 234.597 69.4799 236.691C69.4799 238.79 70.1361 240.514 71.4591 241.857C72.7768 243.191 74.4851 243.857 76.5841 243.857C78.6257 243.857 80.3237 243.191 81.6882 241.857C83.0632 240.514 83.7507 238.79 83.7507 236.691C83.7507 234.597 83.0528 232.878 81.6674 231.545C80.2768 230.201 78.5841 229.524 76.5841 229.524C74.5424 229.524 72.8445 230.201 71.5007 231.545Z" fill="white"/>
<path d="M95.6262 220.649V207.961L111.668 197.565H117.751V253.899H104.918V214.649L95.6262 220.649Z" fill="white"/>
<path d="M155.026 197.565L138.422 216.899C139.38 216.357 140.724 216.086 142.464 216.086C144.464 216.086 146.485 216.513 148.526 217.357C150.578 218.19 152.505 219.394 154.297 220.961C156.099 222.534 157.573 224.618 158.714 227.211C159.849 229.795 160.422 232.664 160.422 235.815C160.422 238.998 159.818 241.852 158.61 244.378C157.401 246.909 155.781 248.914 153.755 250.399C151.724 251.873 149.505 252.998 147.089 253.774C144.682 254.534 142.162 254.92 139.526 254.92C133.193 254.92 127.865 253.081 123.547 249.399C119.224 245.706 117.068 241.18 117.068 235.815C117.068 231.263 117.698 227.519 118.964 224.586C120.24 221.644 122.568 217.894 125.943 213.336L139.172 197.565H155.026ZM130.38 235.815C130.38 238.274 131.172 240.31 132.755 241.92C134.349 243.534 136.401 244.336 138.901 244.336C141.412 244.336 143.485 243.534 145.11 241.92C146.745 240.31 147.568 238.274 147.568 235.815C147.568 233.305 146.735 231.222 145.068 229.565C143.412 227.899 141.36 227.065 138.901 227.065C136.537 227.065 134.526 227.899 132.86 229.565C131.203 231.222 130.38 233.305 130.38 235.815Z" fill="white"/>
<path d="M167.913 239.295C170.09 239.295 171.944 240.061 173.476 241.587C175.002 243.102 175.767 244.956 175.767 247.149C175.767 249.29 175.002 251.123 173.476 252.649C171.944 254.16 170.09 254.92 167.913 254.92C165.773 254.92 163.939 254.16 162.413 252.649C160.898 251.123 160.142 249.29 160.142 247.149C160.142 244.956 160.898 243.102 162.413 241.587C163.939 240.061 165.773 239.295 167.913 239.295Z" fill="white"/>
<path d="M49.4331 265.341H55.0581C56.5685 265.341 57.7977 265.747 58.7456 266.549C59.7039 267.356 60.1831 268.507 60.1831 270.007C60.1831 271.174 59.8914 272.148 59.3081 272.924C58.7352 273.705 57.9539 274.252 56.9539 274.57L62.3706 281.07H57.8081L53.0164 274.862V281.07H49.4331V265.341ZM53.0164 272.32H53.4331C53.7664 272.32 54.0425 272.315 54.2664 272.299C54.5008 272.289 54.7664 272.247 55.0581 272.174C55.3498 272.091 55.5789 271.981 55.7456 271.841C55.9227 271.705 56.0789 271.502 56.2039 271.237C56.3394 270.976 56.4123 270.653 56.4123 270.278C56.4123 269.893 56.3394 269.565 56.2039 269.299C56.0789 269.023 55.9227 268.815 55.7456 268.674C55.5789 268.539 55.3498 268.435 55.0581 268.362C54.7664 268.278 54.5008 268.231 54.2664 268.216C54.0425 268.205 53.7664 268.195 53.4331 268.195H53.0164V272.32Z" fill="white"/>
<path d="M85.4154 276.654H78.3113C78.3113 277.336 78.53 277.841 78.9779 278.174C79.4207 278.508 79.905 278.674 80.4363 278.674C80.9779 278.674 81.405 278.607 81.7279 278.466C82.0457 278.315 82.405 278.023 82.8113 277.591L85.2488 278.799C84.2332 280.508 82.5457 281.362 80.1863 281.362C78.7123 281.362 77.4467 280.857 76.3946 279.841C75.3373 278.831 74.8113 277.612 74.8113 276.195C74.8113 274.768 75.3373 273.544 76.3946 272.529C77.4467 271.518 78.7123 271.008 80.1863 271.008C81.7384 271.008 83.004 271.461 83.9779 272.362C84.9467 273.253 85.4363 274.529 85.4363 276.195C85.4363 276.419 85.4259 276.57 85.4154 276.654ZM78.4154 274.779H82.1238C82.0509 274.268 81.8529 273.878 81.5196 273.612C81.1967 273.336 80.7904 273.195 80.2904 273.195C79.7175 273.195 79.2696 273.341 78.9363 273.633C78.6134 273.924 78.4415 274.31 78.4154 274.779Z" fill="white"/>
<path d="M99.4519 281.071V264.675H102.827V272.321H102.869C103.744 271.446 104.671 271.008 105.66 271.008C106.145 271.008 106.624 271.071 107.098 271.196C107.582 271.321 108.04 271.524 108.473 271.8C108.915 272.065 109.27 272.44 109.535 272.925C109.811 273.414 109.952 273.982 109.952 274.633V281.071H106.577V275.55C106.577 275.039 106.41 274.591 106.077 274.216C105.754 273.831 105.337 273.633 104.827 273.633C104.311 273.633 103.848 273.836 103.431 274.237C103.025 274.628 102.827 275.065 102.827 275.55V281.071H99.4519Z" fill="white"/>
<path d="M125.156 279.862C124.24 278.862 123.781 277.643 123.781 276.195C123.781 274.737 124.24 273.508 125.156 272.508C126.073 271.508 127.229 271.008 128.635 271.008C129.937 271.008 131.01 271.414 131.844 272.216V271.299H135.219V281.07H131.885V279.966H131.844C131.01 280.898 129.937 281.362 128.635 281.362C127.229 281.362 126.073 280.862 125.156 279.862ZM128.01 274.529C127.578 274.961 127.365 275.518 127.365 276.195C127.365 276.862 127.573 277.414 127.99 277.841C128.406 278.273 128.958 278.487 129.656 278.487C130.307 278.487 130.849 278.273 131.281 277.841C131.708 277.398 131.927 276.852 131.927 276.195C131.927 275.518 131.703 274.961 131.26 274.529C130.828 274.102 130.292 273.883 129.656 273.883C129 273.883 128.453 274.102 128.01 274.529Z" fill="white"/>
<path d="M160.01 272.508C160.926 273.508 161.385 274.737 161.385 276.196C161.385 277.644 160.926 278.862 160.01 279.862C159.093 280.862 157.931 281.362 156.53 281.362C155.223 281.362 154.155 280.899 153.322 279.966H153.28V281.071H149.947V264.675H153.322V272.216C154.155 271.414 155.223 271.008 156.53 271.008C157.931 271.008 159.093 271.508 160.01 272.508ZM157.155 277.841C157.582 277.414 157.801 276.862 157.801 276.196C157.801 275.519 157.577 274.961 157.135 274.529C156.702 274.102 156.161 273.883 155.51 273.883C154.869 273.883 154.327 274.102 153.885 274.529C153.452 274.961 153.239 275.519 153.239 276.196C153.239 276.852 153.447 277.399 153.864 277.841C154.291 278.274 154.843 278.487 155.51 278.487C156.187 278.487 156.739 278.274 157.155 277.841Z" fill="white"/>
<path d="M199.4 278.049H196.483V274.632H193.046V271.716H196.483V268.278H199.4V271.716H202.817V274.632H199.4V278.049Z" fill="white"/>
<path d="M235.192 265.341H240.921C242.53 265.341 243.827 265.757 244.817 266.591C245.801 267.414 246.296 268.612 246.296 270.195C246.296 271.768 245.796 273.002 244.796 273.903C243.796 274.794 242.504 275.237 240.921 275.237H238.775V281.07H235.192V265.341ZM238.775 272.382H239.775C240.577 272.382 241.239 272.226 241.754 271.903C242.265 271.57 242.525 271.039 242.525 270.299C242.525 269.549 242.265 269.018 241.754 268.695C241.239 268.362 240.577 268.195 239.775 268.195H238.775V272.382Z" fill="white"/>
<path d="M270.221 276.654H263.116C263.116 277.336 263.335 277.841 263.783 278.174C264.226 278.508 264.71 278.674 265.241 278.674C265.783 278.674 266.21 278.607 266.533 278.466C266.851 278.315 267.21 278.023 267.616 277.591L270.054 278.799C269.038 280.508 267.351 281.362 264.991 281.362C263.517 281.362 262.252 280.857 261.2 279.841C260.142 278.831 259.616 277.612 259.616 276.195C259.616 274.768 260.142 273.544 261.2 272.529C262.252 271.518 263.517 271.008 264.991 271.008C266.544 271.008 267.809 271.461 268.783 272.362C269.752 273.253 270.241 274.529 270.241 276.195C270.241 276.419 270.231 276.57 270.221 276.654ZM263.221 274.779H266.929C266.856 274.268 266.658 273.878 266.325 273.612C266.002 273.336 265.596 273.195 265.096 273.195C264.523 273.195 264.075 273.341 263.741 273.633C263.419 273.924 263.247 274.31 263.221 274.779Z" fill="white"/>
<path d="M284.257 281.07V271.299H287.632V272.695H287.674C287.7 272.654 287.741 272.602 287.799 272.529C287.851 272.445 287.971 272.31 288.153 272.112C288.346 271.919 288.549 271.747 288.757 271.591C288.976 271.44 289.262 271.31 289.611 271.195C289.955 271.07 290.304 271.008 290.653 271.008C291.028 271.008 291.387 271.065 291.736 271.174C292.096 271.273 292.361 271.372 292.528 271.466L292.799 271.612L291.382 274.466C290.965 274.122 290.382 273.945 289.632 273.945C289.226 273.945 288.882 274.039 288.59 274.216C288.299 274.383 288.09 274.602 287.965 274.862C287.84 275.112 287.747 275.331 287.695 275.508C287.653 275.69 287.632 275.831 287.632 275.924V281.07H284.257Z" fill="white"/>
<path d="M306.75 271.299V269.216C306.76 267.758 307.104 266.591 307.771 265.716C308.448 264.831 309.385 264.383 310.583 264.383C311.094 264.383 311.583 264.461 312.042 264.612C312.51 264.753 312.844 264.898 313.042 265.049L313.375 265.258L312.188 267.654C311.88 267.477 311.547 267.383 311.188 267.383C310.755 267.383 310.469 267.529 310.333 267.82C310.193 268.102 310.125 268.591 310.125 269.299V271.299H312.375V273.862H310.125V281.07H306.75V273.862H305.354V271.299H306.75Z" fill="white"/>
<path d="M326.69 279.924C325.607 278.956 325.065 277.711 325.065 276.195C325.065 274.685 325.628 273.44 326.753 272.466C327.888 271.497 329.295 271.008 330.961 271.008C332.597 271.008 333.982 271.503 335.107 272.487C336.232 273.461 336.795 274.695 336.795 276.195C336.795 277.695 336.237 278.935 335.128 279.904C334.029 280.878 332.638 281.362 330.961 281.362C329.211 281.362 327.784 280.883 326.69 279.924ZM329.295 274.529C328.862 274.961 328.649 275.518 328.649 276.195C328.649 276.862 328.857 277.414 329.274 277.841C329.69 278.273 330.243 278.487 330.94 278.487C331.591 278.487 332.133 278.273 332.565 277.841C332.993 277.398 333.211 276.852 333.211 276.195C333.211 275.518 332.987 274.961 332.545 274.529C332.112 274.102 331.576 273.883 330.94 273.883C330.284 273.883 329.737 274.102 329.295 274.529Z" fill="white"/>
<path d="M350.812 281.07V271.299H354.187V272.695H354.228C354.254 272.654 354.296 272.602 354.353 272.529C354.405 272.445 354.525 272.31 354.707 272.112C354.9 271.919 355.103 271.747 355.312 271.591C355.53 271.44 355.817 271.31 356.166 271.195C356.509 271.07 356.858 271.008 357.207 271.008C357.582 271.008 357.942 271.065 358.291 271.174C358.65 271.273 358.916 271.372 359.082 271.466L359.353 271.612L357.937 274.466C357.52 274.122 356.937 273.945 356.187 273.945C355.78 273.945 355.437 274.039 355.145 274.216C354.853 274.383 354.645 274.602 354.52 274.862C354.395 275.112 354.301 275.331 354.249 275.508C354.207 275.69 354.187 275.831 354.187 275.924V281.07H350.812Z" fill="white"/>
<path d="M372.742 281.07V271.299H376.117V272.32H376.159C377.034 271.445 377.961 271.008 378.951 271.008C379.659 271.008 380.326 271.154 380.951 271.445C381.576 271.737 382.044 272.19 382.367 272.799C383.352 271.607 384.435 271.008 385.617 271.008C386.659 271.008 387.555 271.299 388.305 271.883C389.055 272.466 389.43 273.383 389.43 274.633V281.07H386.055V275.549C386.055 275.023 385.909 274.586 385.617 274.237C385.326 273.893 384.893 273.716 384.326 273.716C383.836 273.716 383.461 273.872 383.201 274.174C382.935 274.466 382.789 274.82 382.763 275.237V281.07H379.388V275.549C379.388 275.023 379.242 274.586 378.951 274.237C378.669 273.893 378.247 273.716 377.68 273.716C377.148 273.716 376.753 273.878 376.492 274.195C376.242 274.518 376.117 274.904 376.117 275.362V281.07H372.742Z" fill="white"/>
<path d="M404.623 279.862C403.706 278.862 403.248 277.643 403.248 276.195C403.248 274.737 403.706 273.508 404.623 272.508C405.54 271.508 406.696 271.008 408.102 271.008C409.404 271.008 410.477 271.414 411.311 272.216V271.299H414.686V281.07H411.352V279.966H411.311C410.477 280.898 409.404 281.362 408.102 281.362C406.696 281.362 405.54 280.862 404.623 279.862ZM407.477 274.529C407.045 274.961 406.831 275.518 406.831 276.195C406.831 276.862 407.04 277.414 407.456 277.841C407.873 278.273 408.425 278.487 409.123 278.487C409.774 278.487 410.316 278.273 410.748 277.841C411.175 277.398 411.394 276.852 411.394 276.195C411.394 275.518 411.17 274.961 410.727 274.529C410.295 274.102 409.758 273.883 409.123 273.883C408.467 273.883 407.92 274.102 407.477 274.529Z" fill="white"/>
<path d="M429.414 281.07V271.299H432.789V272.32H432.83C433.705 271.445 434.632 271.008 435.622 271.008C436.106 271.008 436.585 271.07 437.059 271.195C437.544 271.32 438.002 271.523 438.434 271.799C438.877 272.065 439.231 272.44 439.497 272.924C439.773 273.414 439.914 273.982 439.914 274.633V281.07H436.539V275.549C436.539 275.039 436.372 274.591 436.039 274.216C435.716 273.831 435.299 273.633 434.789 273.633C434.273 273.633 433.809 273.836 433.393 274.237C432.986 274.628 432.789 275.065 432.789 275.549V281.07H429.414Z" fill="white"/>
<path d="M459.66 273.779C459.019 273.779 458.472 274.018 458.014 274.487C457.556 274.945 457.326 275.508 457.326 276.174C457.326 276.841 457.556 277.414 458.014 277.883C458.472 278.357 459.019 278.591 459.66 278.591C459.962 278.591 460.248 278.56 460.514 278.487C460.79 278.404 460.993 278.331 461.118 278.258L461.285 278.133L462.431 280.487C462.347 280.544 462.222 280.622 462.056 280.716C461.899 280.815 461.54 280.945 460.972 281.112C460.415 281.279 459.811 281.362 459.16 281.362C457.728 281.362 456.462 280.857 455.368 279.841C454.285 278.831 453.743 277.622 453.743 276.216C453.743 274.789 454.285 273.565 455.368 272.549C456.462 271.523 457.728 271.008 459.16 271.008C459.811 271.008 460.41 271.086 460.951 271.237C461.493 271.393 461.879 271.544 462.118 271.695L462.431 271.924L461.285 274.237C460.868 273.935 460.326 273.779 459.66 273.779Z" fill="white"/>
<path d="M486.145 276.654H479.041C479.041 277.336 479.259 277.841 479.707 278.174C480.15 278.508 480.634 278.674 481.166 278.674C481.707 278.674 482.134 278.607 482.457 278.466C482.775 278.315 483.134 278.023 483.541 277.591L485.978 278.799C484.962 280.508 483.275 281.362 480.916 281.362C479.442 281.362 478.176 280.857 477.124 279.841C476.067 278.831 475.541 277.612 475.541 276.195C475.541 274.768 476.067 273.544 477.124 272.529C478.176 271.518 479.442 271.008 480.916 271.008C482.468 271.008 483.733 271.461 484.707 272.362C485.676 273.253 486.166 274.529 486.166 276.195C486.166 276.419 486.155 276.57 486.145 276.654ZM479.145 274.779H482.853C482.78 274.268 482.582 273.878 482.249 273.612C481.926 273.336 481.52 273.195 481.02 273.195C480.447 273.195 479.999 273.341 479.666 273.633C479.343 273.924 479.171 274.31 479.145 274.779Z" fill="white"/>
</svg>
