<svg width="438" height="86" viewBox="0 0 438 86" fill="none" xmlns="http://www.w3.org/2000/svg">
<path d="M46.2223 14.9622C46.2223 20.6602 43.8056 24.9154 38.9723 27.7331C41.9827 29.0977 44.3889 31.056 46.1806 33.6081C47.9827 36.1497 48.8889 39.2695 48.8889 42.9622C48.8889 47.5456 46.7535 51.3893 42.4931 54.4831C38.2431 57.582 33.3577 59.1289 27.8472 59.1289C22.2066 59.1289 17.2847 57.5977 13.0764 54.5247C8.86808 51.457 6.76392 47.6029 6.76392 42.9622C6.76392 35.8112 10.04 30.7331 16.5972 27.7331C11.6233 24.9154 9.13892 20.6602 9.13892 14.9622C9.13892 10.9622 11.04 7.59766 14.8472 4.85807C18.6493 2.1237 22.9618 0.753906 27.7847 0.753906C32.7431 0.753906 37.0556 2.10807 40.7223 4.81641C44.3889 7.52474 46.2223 10.9102 46.2223 14.9622ZM34.0556 16.7956C34.0556 14.9779 33.4723 13.4727 32.3056 12.2747C31.1493 11.0664 29.665 10.4622 27.8472 10.4622C26.0243 10.4622 24.5139 11.0664 23.3056 12.2747C22.1077 13.4727 21.5139 14.9779 21.5139 16.7956C21.5139 18.6185 22.1233 20.1237 23.3472 21.3164C24.566 22.4987 26.066 23.0872 27.8472 23.0872C29.665 23.0872 31.1493 22.5143 32.3056 21.3581C33.4723 20.1914 34.0556 18.6706 34.0556 16.7956ZM22.7014 35.7539C21.3525 37.0872 20.6806 38.806 20.6806 40.8997C20.6806 42.9987 21.3368 44.7227 22.6597 46.0664C23.9775 47.3997 25.6858 48.0664 27.7847 48.0664C29.8264 48.0664 31.5243 47.3997 32.8889 46.0664C34.2639 44.7227 34.9514 42.9987 34.9514 40.8997C34.9514 38.806 34.2535 37.0872 32.8681 35.7539C31.4775 34.4102 29.7848 33.7331 27.7847 33.7331C25.7431 33.7331 24.0452 34.4102 22.7014 35.7539Z" fill="white"/>
<path d="M46.8269 24.8577V12.1702L62.8686 1.77441H68.9519V58.1077H56.1186V18.8577L46.8269 24.8577Z" fill="white"/>
<path d="M106.227 1.77441L89.6226 21.1077C90.5809 20.5661 91.9247 20.2952 93.6643 20.2952C95.6643 20.2952 97.6851 20.7223 99.7268 21.5661C101.779 22.3994 103.706 23.6025 105.498 25.1702C107.3 26.7432 108.774 28.8265 109.914 31.4202C111.05 34.0036 111.623 36.8734 111.623 40.0244C111.623 43.2067 111.018 46.0609 109.81 48.5869C108.602 51.1182 106.982 53.1234 104.956 54.6077C102.925 56.0817 100.706 57.2067 98.2893 57.9827C95.883 58.7432 93.3622 59.1286 90.7268 59.1286C84.3934 59.1286 79.0653 57.29 74.7476 53.6077C70.4247 49.915 68.2684 45.389 68.2684 40.0244C68.2684 35.4723 68.8986 31.7275 70.1643 28.7952C71.4403 25.8525 73.7684 22.1025 77.1434 17.5452L90.3726 1.77441H106.227ZM81.5809 40.0244C81.5809 42.4827 82.3726 44.5192 83.9559 46.1286C85.5497 47.7432 87.6018 48.5452 90.1018 48.5452C92.6122 48.5452 94.6851 47.7432 96.3101 46.1286C97.9455 44.5192 98.7684 42.4827 98.7684 40.0244C98.7684 37.514 97.9351 35.4307 96.2684 33.7744C94.6122 32.1077 92.5601 31.2744 90.1018 31.2744C87.7372 31.2744 85.7268 32.1077 84.0601 33.7744C82.4039 35.4307 81.5809 37.514 81.5809 40.0244Z" fill="white"/>
<path d="M119.114 43.5039C121.291 43.5039 123.145 44.2695 124.676 45.7956C126.202 47.3112 126.968 49.1654 126.968 51.3581C126.968 53.4987 126.202 55.332 124.676 56.8581C123.145 58.3685 121.291 59.1289 119.114 59.1289C116.973 59.1289 115.14 58.3685 113.614 56.8581C112.098 55.332 111.343 53.4987 111.343 51.3581C111.343 49.1654 112.098 47.3112 113.614 45.7956C115.14 44.2695 116.973 43.5039 119.114 43.5039Z" fill="white"/>
<path d="M0.633911 69.5498H6.25891C7.76933 69.5498 8.99849 69.9561 9.94641 70.7581C10.9047 71.5654 11.3839 72.7165 11.3839 74.2165C11.3839 75.3831 11.0922 76.3571 10.5089 77.1331C9.936 77.9144 9.15474 78.4613 8.15474 78.779L13.5714 85.279H9.00891L4.21724 79.0706V85.279H0.633911V69.5498ZM4.21724 76.529H4.63391C4.96724 76.529 5.24329 76.5238 5.46724 76.5081C5.70162 76.4977 5.96724 76.4561 6.25891 76.3831C6.55058 76.2998 6.77974 76.1904 6.94641 76.0498C7.12349 75.9144 7.27974 75.7113 7.40474 75.4456C7.54016 75.1852 7.61308 74.8623 7.61308 74.4873C7.61308 74.1019 7.54016 73.7738 7.40474 73.5081C7.27974 73.2321 7.12349 73.0238 6.94641 72.8831C6.77974 72.7477 6.55058 72.6436 6.25891 72.5706C5.96724 72.4873 5.70162 72.4404 5.46724 72.4248C5.24329 72.4144 4.96724 72.404 4.63391 72.404H4.21724V76.529Z" fill="white"/>
<path d="M36.616 80.8626H29.5118C29.5118 81.5449 29.7306 82.0501 30.1785 82.3835C30.6212 82.7168 31.1056 82.8835 31.6368 82.8835C32.1785 82.8835 32.6056 82.8158 32.9285 82.6751C33.2462 82.5241 33.6056 82.2324 34.0118 81.8001L36.4493 83.0085C35.4337 84.7168 33.7462 85.571 31.3868 85.571C29.9129 85.571 28.6473 85.0658 27.5952 84.0501C26.5379 83.0397 26.0118 81.821 26.0118 80.4043C26.0118 78.9772 26.5379 77.7533 27.5952 76.7376C28.6473 75.7272 29.9129 75.2168 31.3868 75.2168C32.9389 75.2168 34.2045 75.6699 35.1785 76.571C36.1473 77.4616 36.6368 78.7376 36.6368 80.4043C36.6368 80.6283 36.6264 80.7793 36.616 80.8626ZM29.616 78.9876H33.3243C33.2514 78.4772 33.0535 78.0866 32.7202 77.821C32.3973 77.5449 31.991 77.4043 31.491 77.4043C30.9181 77.4043 30.4702 77.5501 30.1368 77.8418C29.8139 78.1335 29.642 78.5189 29.616 78.9876Z" fill="white"/>
<path d="M50.6525 85.2796V68.8838H54.0275V76.5296H54.0691C54.9441 75.6546 55.8712 75.2171 56.8608 75.2171C57.3452 75.2171 57.8243 75.2796 58.2983 75.4046C58.7827 75.5296 59.241 75.7327 59.6733 76.0088C60.116 76.2744 60.4702 76.6494 60.7358 77.1338C61.0118 77.6234 61.1525 78.1911 61.1525 78.8421V85.2796H57.7775V79.7588C57.7775 79.2484 57.6108 78.8005 57.2775 78.4255C56.9546 78.04 56.5379 77.8421 56.0275 77.8421C55.5118 77.8421 55.0483 78.0452 54.6316 78.4463C54.2254 78.8369 54.0275 79.2744 54.0275 79.7588V85.2796H50.6525Z" fill="white"/>
<path d="M76.3571 84.071C75.4404 83.071 74.9821 81.8522 74.9821 80.4043C74.9821 78.946 75.4404 77.7168 76.3571 76.7168C77.2737 75.7168 78.43 75.2168 79.8362 75.2168C81.1383 75.2168 82.2112 75.623 83.0446 76.4251V75.5085H86.4196V85.2793H83.0862V84.1751H83.0446C82.2112 85.1074 81.1383 85.571 79.8362 85.571C78.43 85.571 77.2737 85.071 76.3571 84.071ZM79.2112 78.7376C78.7789 79.1699 78.5654 79.7272 78.5654 80.4043C78.5654 81.071 78.7737 81.623 79.1904 82.0501C79.6071 82.4824 80.1591 82.696 80.8571 82.696C81.5081 82.696 82.0498 82.4824 82.4821 82.0501C82.9091 81.6074 83.1279 81.0605 83.1279 80.4043C83.1279 79.7272 82.9039 79.1699 82.4612 78.7376C82.0289 78.3105 81.4925 78.0918 80.8571 78.0918C80.2008 78.0918 79.6539 78.3105 79.2112 78.7376Z" fill="white"/>
<path d="M111.21 76.7171C112.127 77.7171 112.585 78.9463 112.585 80.4046C112.585 81.8525 112.127 83.0713 111.21 84.0713C110.293 85.0713 109.132 85.5713 107.731 85.5713C106.424 85.5713 105.356 85.1077 104.523 84.1755H104.481V85.2796H101.148V68.8838H104.523V76.4255C105.356 75.6234 106.424 75.2171 107.731 75.2171C109.132 75.2171 110.293 75.7171 111.21 76.7171ZM108.356 82.0505C108.783 81.6234 109.002 81.0713 109.002 80.4046C109.002 79.7275 108.778 79.1702 108.335 78.738C107.903 78.3109 107.361 78.0921 106.71 78.0921C106.069 78.0921 105.528 78.3109 105.085 78.738C104.653 79.1702 104.439 79.7275 104.439 80.4046C104.439 81.0609 104.648 81.6077 105.064 82.0505C105.491 82.4827 106.043 82.6963 106.71 82.6963C107.387 82.6963 107.939 82.4827 108.356 82.0505Z" fill="white"/>
<path d="M150.601 82.2581H147.684V78.8415H144.246V75.9248H147.684V72.4873H150.601V75.9248H154.017V78.8415H150.601V82.2581Z" fill="white"/>
<path d="M186.392 69.5498H192.121C193.731 69.5498 195.028 69.9665 196.017 70.7998C197.002 71.6227 197.496 72.8206 197.496 74.404C197.496 75.9769 196.996 77.2113 195.996 78.1123C194.996 79.0029 193.705 79.4456 192.121 79.4456H189.976V85.279H186.392V69.5498ZM189.976 76.5915H190.976C191.778 76.5915 192.439 76.4352 192.955 76.1123C193.465 75.779 193.726 75.2477 193.726 74.5081C193.726 73.7581 193.465 73.2269 192.955 72.904C192.439 72.5706 191.778 72.404 190.976 72.404H189.976V76.5915Z" fill="white"/>
<path d="M221.421 80.8626H214.317C214.317 81.5449 214.536 82.0501 214.984 82.3835C215.427 82.7168 215.911 82.8835 216.442 82.8835C216.984 82.8835 217.411 82.8158 217.734 82.6751C218.052 82.5241 218.411 82.2324 218.817 81.8001L221.255 83.0085C220.239 84.7168 218.552 85.571 216.192 85.571C214.718 85.571 213.453 85.0658 212.4 84.0501C211.343 83.0397 210.817 81.821 210.817 80.4043C210.817 78.9772 211.343 77.7533 212.4 76.7376C213.453 75.7272 214.718 75.2168 216.192 75.2168C217.744 75.2168 219.01 75.6699 219.984 76.571C220.953 77.4616 221.442 78.7376 221.442 80.4043C221.442 80.6283 221.432 80.7793 221.421 80.8626ZM214.421 78.9876H218.13C218.057 78.4772 217.859 78.0866 217.525 77.821C217.203 77.5449 216.796 77.4043 216.296 77.4043C215.723 77.4043 215.275 77.5501 214.942 77.8418C214.619 78.1335 214.447 78.5189 214.421 78.9876Z" fill="white"/>
<path d="M235.458 85.2793V75.5085H238.833V76.9043H238.874C238.9 76.8626 238.942 76.8105 238.999 76.7376C239.051 76.6543 239.171 76.5189 239.353 76.321C239.546 76.1283 239.749 75.9564 239.958 75.8001C240.176 75.6491 240.463 75.5189 240.812 75.4043C241.156 75.2793 241.505 75.2168 241.853 75.2168C242.228 75.2168 242.588 75.2741 242.937 75.3835C243.296 75.4824 243.562 75.5814 243.728 75.6751L243.999 75.821L242.583 78.6751C242.166 78.3314 241.583 78.1543 240.833 78.1543C240.426 78.1543 240.083 78.248 239.791 78.4251C239.499 78.5918 239.291 78.8105 239.166 79.071C239.041 79.321 238.947 79.5397 238.895 79.7168C238.853 79.8991 238.833 80.0397 238.833 80.1335V85.2793H235.458Z" fill="white"/>
<path d="M257.951 75.5085V73.4251C257.961 71.9668 258.305 70.8001 258.972 69.9251C259.649 69.0397 260.586 68.5918 261.784 68.5918C262.295 68.5918 262.784 68.6699 263.243 68.821C263.711 68.9616 264.045 69.1074 264.243 69.2585L264.576 69.4668L263.388 71.8626C263.081 71.6855 262.748 71.5918 262.388 71.5918C261.956 71.5918 261.67 71.7376 261.534 72.0293C261.394 72.3105 261.326 72.8001 261.326 73.5085V75.5085H263.576V78.071H261.326V85.2793H257.951V78.071H256.555V75.5085H257.951Z" fill="white"/>
<path d="M277.891 84.1335C276.808 83.1647 276.266 81.9199 276.266 80.4043C276.266 78.8939 276.828 77.6491 277.953 76.6751C279.089 75.7064 280.495 75.2168 282.162 75.2168C283.797 75.2168 285.183 75.7116 286.308 76.696C287.433 77.6699 287.995 78.9043 287.995 80.4043C287.995 81.9043 287.438 83.1439 286.328 84.1126C285.23 85.0866 283.839 85.571 282.162 85.571C280.412 85.571 278.985 85.0918 277.891 84.1335ZM280.495 78.7376C280.063 79.1699 279.849 79.7272 279.849 80.4043C279.849 81.071 280.058 81.623 280.474 82.0501C280.891 82.4824 281.443 82.696 282.141 82.696C282.792 82.696 283.334 82.4824 283.766 82.0501C284.193 81.6074 284.412 81.0605 284.412 80.4043C284.412 79.7272 284.188 79.1699 283.745 78.7376C283.313 78.3105 282.776 78.0918 282.141 78.0918C281.485 78.0918 280.938 78.3105 280.495 78.7376Z" fill="white"/>
<path d="M302.012 85.2793V75.5085H305.387V76.9043H305.429C305.455 76.8626 305.497 76.8105 305.554 76.7376C305.606 76.6543 305.726 76.5189 305.908 76.321C306.101 76.1283 306.304 75.9564 306.512 75.8001C306.731 75.6491 307.017 75.5189 307.366 75.4043C307.71 75.2793 308.059 75.2168 308.408 75.2168C308.783 75.2168 309.142 75.2741 309.491 75.3835C309.851 75.4824 310.116 75.5814 310.283 75.6751L310.554 75.821L309.137 78.6751C308.721 78.3314 308.137 78.1543 307.387 78.1543C306.981 78.1543 306.637 78.248 306.346 78.4251C306.054 78.5918 305.846 78.8105 305.721 79.071C305.596 79.321 305.502 79.5397 305.45 79.7168C305.408 79.8991 305.387 80.0397 305.387 80.1335V85.2793H302.012Z" fill="white"/>
<path d="M323.943 85.2793V75.5085H327.318V76.5293H327.36C328.235 75.6543 329.162 75.2168 330.151 75.2168C330.86 75.2168 331.526 75.3626 332.151 75.6543C332.776 75.946 333.245 76.3991 333.568 77.0085C334.552 75.8158 335.636 75.2168 336.818 75.2168C337.86 75.2168 338.755 75.5085 339.505 76.0918C340.255 76.6751 340.63 77.5918 340.63 78.8418V85.2793H337.255V79.7585C337.255 79.2324 337.11 78.7949 336.818 78.446C336.526 78.1022 336.094 77.9251 335.526 77.9251C335.037 77.9251 334.662 78.0814 334.401 78.3835C334.136 78.6751 333.99 79.0293 333.964 79.446V85.2793H330.589V79.7585C330.589 79.2324 330.443 78.7949 330.151 78.446C329.87 78.1022 329.448 77.9251 328.88 77.9251C328.349 77.9251 327.953 78.0866 327.693 78.4043C327.443 78.7272 327.318 79.1126 327.318 79.571V85.2793H323.943Z" fill="white"/>
<path d="M355.824 84.071C354.907 83.071 354.449 81.8522 354.449 80.4043C354.449 78.946 354.907 77.7168 355.824 76.7168C356.74 75.7168 357.897 75.2168 359.303 75.2168C360.605 75.2168 361.678 75.623 362.511 76.4251V75.5085H365.886V85.2793H362.553V84.1751H362.511C361.678 85.1074 360.605 85.571 359.303 85.571C357.897 85.571 356.74 85.071 355.824 84.071ZM358.678 78.7376C358.246 79.1699 358.032 79.7272 358.032 80.4043C358.032 81.071 358.24 81.623 358.657 82.0501C359.074 82.4824 359.626 82.696 360.324 82.696C360.975 82.696 361.516 82.4824 361.949 82.0501C362.376 81.6074 362.595 81.0605 362.595 80.4043C362.595 79.7272 362.371 79.1699 361.928 78.7376C361.496 78.3105 360.959 78.0918 360.324 78.0918C359.667 78.0918 359.121 78.3105 358.678 78.7376Z" fill="white"/>
<path d="M380.614 85.2793V75.5085H383.989V76.5293H384.031C384.906 75.6543 385.833 75.2168 386.823 75.2168C387.307 75.2168 387.786 75.2793 388.26 75.4043C388.744 75.5293 389.203 75.7324 389.635 76.0085C390.078 76.2741 390.432 76.6491 390.698 77.1335C390.974 77.623 391.114 78.1908 391.114 78.8418V85.2793H387.739V79.7585C387.739 79.248 387.573 78.8001 387.239 78.4251C386.916 78.0397 386.5 77.8418 385.989 77.8418C385.474 77.8418 385.01 78.0449 384.593 78.446C384.187 78.8366 383.989 79.2741 383.989 79.7585V85.2793H380.614Z" fill="white"/>
<path d="M410.861 77.9876C410.22 77.9876 409.673 78.2272 409.215 78.696C408.756 79.1543 408.527 79.7168 408.527 80.3835C408.527 81.0501 408.756 81.623 409.215 82.0918C409.673 82.5658 410.22 82.8001 410.861 82.8001C411.163 82.8001 411.449 82.7689 411.715 82.696C411.991 82.6126 412.194 82.5397 412.319 82.4668L412.486 82.3418L413.631 84.696C413.548 84.7533 413.423 84.8314 413.256 84.9251C413.1 85.0241 412.741 85.1543 412.173 85.321C411.616 85.4876 411.012 85.571 410.361 85.571C408.928 85.571 407.663 85.0658 406.569 84.0501C405.486 83.0397 404.944 81.8314 404.944 80.4251C404.944 78.998 405.486 77.7741 406.569 76.7585C407.663 75.7324 408.928 75.2168 410.361 75.2168C411.012 75.2168 411.611 75.2949 412.152 75.446C412.694 75.6022 413.079 75.7533 413.319 75.9043L413.631 76.1335L412.486 78.446C412.069 78.1439 411.527 77.9876 410.861 77.9876Z" fill="white"/>
<path d="M437.345 80.8626H430.241C430.241 81.5449 430.46 82.0501 430.908 82.3835C431.35 82.7168 431.835 82.8835 432.366 82.8835C432.908 82.8835 433.335 82.8158 433.658 82.6751C433.975 82.5241 434.335 82.2324 434.741 81.8001L437.179 83.0085C436.163 84.7168 434.475 85.571 432.116 85.571C430.642 85.571 429.377 85.0658 428.324 84.0501C427.267 83.0397 426.741 81.821 426.741 80.4043C426.741 78.9772 427.267 77.7533 428.324 76.7376C429.377 75.7272 430.642 75.2168 432.116 75.2168C433.668 75.2168 434.934 75.6699 435.908 76.571C436.877 77.4616 437.366 78.7376 437.366 80.4043C437.366 80.6283 437.356 80.7793 437.345 80.8626ZM430.345 78.9876H434.054C433.981 78.4772 433.783 78.0866 433.449 77.821C433.127 77.5449 432.72 77.4043 432.22 77.4043C431.647 77.4043 431.199 77.5501 430.866 77.8418C430.543 78.1335 430.371 78.5189 430.345 78.9876Z" fill="white"/>
</svg>
